# xmcd CD database file
#
# Track frame offsets:
#	150
#	16590
#	32655
#	59830
#
# Disc length: 1055 seconds
#
# Revision: 2
# Processed by: cddbd v1.4PL0 Copyright (c) Steve Scherf et al.
# Submitted via: CDex 1.51
#
DISCID=2a041d04
DTITLE=Breathe - Jonah
DYEAR=1900
DGENRE=
TTITLE0=Jonah
TTITLE1=Liberties Of Love
TTITLE2=Won't You Come Back(Extended)
TTITLE3=Hands To Heaven
EXTD=
EXTT0=
EXTT1=
EXTT2=
EXTT3=
PLAYORDER=
